{"glyphs":{":":{"x_min":0,"x_max":323,"ha":323,"o":"m 130 339 q 130 363 147 379 q 164 396 187 396 q 211 396 228 379 q 245 363 245 339 q 245 315 228 298 q 211 281 187 281 q 163 281 146 298 q 130 315 130 339 z m 73 46 q 73 70 90 86 q 107 103 131 103 q 154 103 171 86 q 188 70 188 46 q 188 22 171 5 q 155 -12 131 -12 q 107 -12 90 5 q 73 22 73 46 z"},"$":{"x_min":0,"x_max":490,"ha":490,"o":"m 374 599 l 318 341 q 374 292 393 256 q 412 219 412 178 q 412 108 365 54 q 318 -1 242 -9 l 224 -94 l 205 -94 l 223 -10 q 210 -13 196 -13 q 181 -13 167 -9 l 148 -94 l 129 -94 l 148 -5 q 96 11 69 42 q 41 73 41 106 q 41 130 55 147 q 68 164 88 164 q 106 164 120 151 q 133 138 133 119 q 133 92 114 80 q 94 67 94 60 q 94 35 153 16 l 216 306 q 211 313 181 343 q 151 373 137 405 q 123 438 123 470 q 123 524 164 569 q 205 613 285 624 l 292 654 l 309 654 l 304 625 q 316 626 324 626 q 336 626 361 623 l 368 654 l 385 654 l 378 620 q 436 606 462 575 q 488 544 488 515 q 488 495 474 479 q 460 463 439 463 q 422 463 409 474 q 396 486 396 503 q 396 524 416 537 q 436 550 436 556 q 436 583 374 599 z m 299 604 l 254 400 q 276 377 302 356 l 356 602 q 338 605 299 604 z m 240 415 l 281 602 q 187 585 187 512 q 187 466 240 415 z m 228 14 l 279 248 l 231 292 l 171 13 q 182 9 198 9 q 215 9 228 14 z m 295 231 l 247 14 q 303 27 329 58 q 354 88 354 124 q 354 177 295 231 z"},"?":{"x_min":0,"x_max":375,"ha":375,"o":"m 149 183 l 126 183 q 123 296 156 344 q 189 391 301 447 q 371 482 371 550 q 371 592 340 619 q 310 646 260 646 q 216 646 184 626 q 152 606 152 592 q 152 587 163 583 l 182 576 q 193 572 201 562 q 209 553 209 537 q 209 517 195 504 q 180 491 162 491 q 140 491 124 508 q 108 525 108 548 q 108 597 152 633 q 197 670 264 670 q 331 670 373 628 q 414 586 414 523 q 414 377 240 305 q 184 281 166 260 q 149 239 149 183 z m 81 46 q 81 70 98 87 q 115 104 139 104 q 163 104 180 87 q 197 70 197 46 q 197 22 180 5 q 163 -12 139 -12 q 115 -12 98 5 q 81 22 81 46 z"},"<":{"x_min":0,"x_max":667,"ha":667,"o":"m 597 76 l 70 299 l 70 346 l 597 568 l 597 511 l 141 322 l 597 133 z"},"'":{"x_min":0,"x_max":214,"ha":214,"o":"m 132 385 l 147 530 q 156 622 175 646 q 193 670 223 670 q 261 670 261 636 q 261 614 221 529 l 153 385 z"},"=":{"x_min":0,"x_max":667,"ha":667,"o":"m 70 464 l 597 464 l 597 411 l 70 411 z m 70 236 l 597 236 l 597 183 l 70 183 z"},"a":{"x_min":0,"x_max":490,"ha":490,"o":"m 439 387 l 373 109 q 364 71 364 50 q 364 30 378 30 q 390 30 411 58 q 433 86 455 141 l 475 141 q 449 62 413 25 q 377 -12 344 -12 q 284 -12 279 78 l 277 78 q 233 -12 156 -12 q 108 -12 73 33 q 39 78 39 142 q 39 243 110 319 q 180 396 250 396 q 316 396 330 323 l 332 323 l 346 387 z m 316 285 q 316 323 300 349 q 283 374 254 374 q 221 374 201 344 q 180 313 154 201 q 127 89 127 61 q 127 13 164 13 q 191 13 219 34 q 247 55 281 133 q 316 211 316 285 z"},"L":{"x_min":0,"x_max":646,"ha":646,"o":"m 364 630 l 235 25 l 364 25 q 426 25 460 36 q 495 48 525 87 q 555 127 590 213 l 615 213 l 557 0 l 27 0 l 32 25 l 123 25 l 250 630 l 153 630 l 158 655 l 466 655 l 460 630 z"},"3":{"x_min":0,"x_max":490,"ha":490,"o":"m 277 343 l 277 341 q 422 318 422 196 q 422 111 350 48 q 279 -14 188 -14 q 121 -14 77 21 q 33 57 33 103 q 33 130 49 147 q 65 165 90 165 q 109 165 123 152 q 136 140 136 120 q 136 87 107 75 q 87 66 87 56 q 87 42 116 28 q 145 13 174 13 q 242 13 282 76 q 322 140 322 224 q 322 328 233 328 q 219 328 195 324 q 171 321 169 321 q 151 321 151 337 q 151 356 176 356 l 224 353 q 289 353 322 413 q 355 474 355 535 q 355 618 283 618 q 251 618 226 604 q 200 591 200 580 q 200 574 204 571 q 231 553 231 529 q 231 510 219 497 q 207 483 184 483 q 163 483 151 497 q 138 511 138 529 q 138 572 184 606 q 230 640 298 640 q 365 640 408 603 q 450 566 450 511 q 450 385 277 343 z"},";":{"x_min":0,"x_max":323,"ha":323,"o":"m 134 339 q 134 363 151 379 q 167 396 191 396 q 215 396 232 379 q 249 363 249 339 q 249 315 232 298 q 215 281 191 281 q 167 281 151 298 q 134 315 134 339 z m 50 -145 l 45 -121 q 111 -99 145 -58 q 178 -17 178 22 q 178 39 169 39 q 162 39 152 24 q 136 0 108 0 q 87 0 73 14 q 59 29 59 50 q 59 75 80 93 q 101 112 129 112 q 164 112 184 85 q 205 59 205 26 q 205 -24 168 -70 q 130 -117 50 -145 z"},"J":{"x_min":0,"x_max":594,"ha":594,"o":"m 531 630 l 444 191 q 413 31 336 -29 q 260 -89 175 -89 q 117 -89 72 -62 q 27 -36 27 13 q 27 42 43 59 q 60 76 83 76 q 105 76 120 61 q 135 46 135 25 q 135 -2 117 -14 q 99 -26 99 -33 q 99 -44 119 -53 q 139 -62 168 -62 q 221 -62 250 -36 q 280 -10 294 29 q 307 68 320 133 l 418 630 l 325 630 l 330 655 l 626 655 l 621 630 z"},"V":{"x_min":0,"x_max":760,"ha":760,"o":"m 353 142 l 744 630 l 646 630 l 651 655 l 853 655 l 848 630 l 776 630 l 256 -15 l 234 -15 l 256 630 l 160 630 l 166 655 l 463 655 l 457 630 l 367 630 l 351 144 z"},"\"":{"x_min":0,"x_max":420,"ha":420,"o":"m 144 385 l 159 530 q 168 622 187 646 q 206 670 236 670 q 254 670 264 660 q 274 649 274 636 q 274 616 233 529 l 165 385 z m 323 385 l 337 528 q 347 624 366 647 q 386 670 417 670 q 453 670 453 637 q 453 607 415 528 l 346 385 z"},"7":{"x_min":0,"x_max":490,"ha":490,"o":"m 168 625 l 501 625 l 501 613 l 395 447 q 385 437 345 367 q 305 297 277 236 q 250 174 250 137 l 252 59 q 252 28 236 4 q 220 -20 193 -20 q 174 -20 158 -4 q 143 12 143 35 q 143 82 192 167 q 241 252 292 331 l 426 539 l 219 539 q 172 539 154 526 q 136 512 109 447 l 83 447 z"},"S":{"x_min":0,"x_max":594,"ha":594,"o":"m 575 655 l 530 468 l 506 468 q 505 562 464 605 q 422 648 359 648 q 296 648 255 611 q 214 573 214 536 q 214 507 240 481 q 265 455 359 415 q 454 375 494 327 q 535 279 535 209 q 535 114 465 50 q 394 -15 301 -15 q 215 -15 136 49 q 97 22 72 0 l 53 0 l 100 190 l 120 190 q 130 101 180 55 q 230 10 301 10 q 374 10 420 50 q 467 90 467 147 q 467 191 434 225 q 401 258 308 300 q 214 341 188 379 q 161 417 161 470 q 161 560 219 615 q 278 670 363 670 q 455 670 506 605 q 537 628 552 655 z"},"}":{"x_min":0,"x_max":480,"ha":480,"o":"m 88 646 l 88 663 q 174 650 222 594 q 271 538 271 475 q 271 437 260 395 q 249 353 249 319 q 249 289 276 257 q 303 226 360 217 l 360 198 q 303 189 276 158 q 249 126 249 96 q 249 62 260 20 q 271 -22 271 -60 q 271 -123 222 -179 q 174 -235 88 -248 l 88 -230 q 145 -218 171 -187 q 198 -155 198 -119 q 198 -78 186 -38 q 176 4 176 39 q 176 87 210 133 q 245 178 320 205 l 320 207 q 250 233 213 280 q 176 326 176 376 q 176 411 186 453 q 198 493 198 534 q 198 571 171 601 q 145 631 88 646 z"},"Z":{"x_min":0,"x_max":646,"ha":646,"o":"m 210 655 l 668 655 l 668 639 l 179 25 l 323 25 q 385 25 425 34 q 464 43 501 82 q 539 121 566 205 l 590 205 l 544 0 l 38 0 l 38 25 l 522 630 l 401 630 q 346 630 311 621 q 276 612 246 579 q 215 545 190 474 l 165 474 z"},"x":{"x_min":0,"x_max":490,"ha":490,"o":"m 79 237 l 56 237 q 85 310 127 353 q 168 396 204 396 q 235 396 255 371 q 274 346 287 263 q 353 348 379 372 q 405 396 433 396 q 451 396 462 384 q 473 372 473 353 q 473 334 461 323 q 449 312 436 312 q 419 312 406 323 q 392 334 387 334 q 378 334 372 329 q 366 325 339 293 q 313 262 293 233 q 318 101 327 66 q 336 31 357 31 q 374 31 396 58 q 419 84 442 135 l 465 135 q 434 57 394 22 q 354 -12 320 -12 q 273 -12 253 20 q 232 53 219 140 l 153 56 q 100 -12 61 -12 q 42 -12 28 1 q 14 15 14 34 q 14 50 26 62 q 37 73 54 73 q 74 73 86 60 q 96 51 102 51 q 114 51 119 55 q 124 60 156 97 q 188 134 213 170 l 191 289 q 182 344 161 344 q 128 344 79 237 z"},")":{"x_min":0,"x_max":490,"ha":490,"o":"m 266 650 l 286 650 q 362 502 362 349 q 362 180 275 19 q 189 -143 28 -232 l 9 -219 q 148 -141 226 99 q 303 338 303 462 q 303 567 266 650 z"},"&":{"x_min":0,"x_max":813,"ha":813,"o":"m 757 115 l 775 102 q 696 -13 588 -13 q 501 -13 437 63 q 350 -13 247 -13 q 165 -13 110 34 q 55 81 55 154 q 55 306 287 384 q 264 453 264 496 q 264 567 312 617 q 359 667 450 667 q 516 667 557 637 q 598 607 598 560 q 598 501 537 464 q 475 427 400 402 q 444 273 499 174 q 526 209 568 280 q 610 351 637 380 q 664 409 706 409 q 738 409 758 389 q 779 369 779 343 q 779 322 764 306 q 750 291 730 291 q 710 291 697 305 q 683 319 683 339 q 683 348 687 358 q 691 368 691 369 q 691 376 680 376 q 653 376 618 317 q 583 258 575 246 l 526 169 q 521 162 512 147 q 568 35 641 35 q 703 35 757 115 z m 393 423 q 519 481 519 581 q 519 644 449 644 q 404 644 381 620 q 358 597 358 558 q 358 517 393 423 z m 293 363 q 172 314 172 210 q 172 141 206 83 q 241 26 305 26 q 359 26 423 82 q 352 181 293 363 z"},"_":{"x_min":0,"x_max":500,"ha":500,"o":"m 506 -125 l -6 -125 l -6 -75 l 506 -75 z"},"v":{"x_min":0,"x_max":427,"ha":427,"o":"m 37 251 l 15 251 q 69 396 156 396 q 219 396 219 334 q 219 319 205 262 l 165 98 q 157 66 157 52 q 157 38 167 29 q 177 19 192 19 q 234 19 280 68 q 325 117 349 189 q 373 261 373 290 q 373 303 355 306 q 305 314 305 352 q 305 370 317 383 q 329 396 350 396 q 399 396 399 328 q 399 214 332 101 q 265 -12 168 -12 q 126 -12 99 13 q 72 38 72 73 q 72 98 83 142 l 121 297 q 123 299 126 320 q 130 341 130 343 q 130 358 116 358 q 83 358 37 251 z"},"O":{"x_min":0,"x_max":646,"ha":646,"o":"m 61 234 q 61 335 114 438 q 167 541 249 605 q 331 670 405 670 q 506 670 567 594 q 629 517 629 406 q 629 245 524 115 q 420 -15 287 -15 q 189 -15 125 62 q 61 140 61 234 z m 520 529 q 520 646 409 646 q 345 646 301 596 q 256 545 215 384 q 174 223 174 124 q 174 9 286 9 q 352 9 393 54 q 435 99 477 277 q 520 455 520 529 z"},"(":{"x_min":0,"x_max":490,"ha":490,"o":"m 210 -232 l 190 -232 q 114 -84 114 69 q 114 237 200 399 q 287 561 448 650 l 467 637 q 328 559 250 319 q 173 79 173 -44 q 173 -145 210 -232 z"},"C":{"x_min":0,"x_max":646,"ha":646,"o":"m 658 646 l 621 463 l 595 463 q 589 645 465 645 q 388 645 330 570 q 273 496 242 371 q 212 246 212 159 q 212 90 252 50 q 292 10 355 10 q 494 10 587 189 l 610 189 l 563 0 l 541 0 q 531 16 513 39 q 428 -15 346 -15 q 240 -15 164 57 q 88 130 88 238 q 88 349 145 449 q 202 549 294 609 q 385 670 467 670 q 550 670 595 606 q 616 623 638 646 z"},"W":{"x_min":0,"x_max":969,"ha":969,"o":"m 586 144 l 967 630 l 886 630 l 891 655 l 1070 655 l 1065 630 l 999 630 l 492 -15 l 469 -15 l 480 304 l 478 306 l 208 -15 l 185 -15 l 214 630 l 129 630 l 135 655 l 834 655 l 829 630 l 756 630 l 596 442 l 584 146 z m 324 630 l 301 136 l 303 134 l 482 348 l 492 630 z m 601 630 l 596 486 l 598 484 l 722 630 z"},"A":{"x_min":0,"x_max":760,"ha":760,"o":"m 485 217 l 277 217 l 121 25 l 226 25 l 221 0 l 3 0 l 8 25 l 88 25 l 612 670 l 636 670 l 576 25 l 671 25 l 666 0 l 362 0 l 366 25 l 464 25 z m 297 242 l 485 242 l 508 501 l 506 503 z"},"f":{"x_min":0,"x_max":323,"ha":323,"o":"m 95 41 l 115 194 l 140 334 q 141 336 143 347 q 145 358 145 359 l 55 359 l 60 384 l 151 384 q 180 527 242 597 q 304 667 371 667 q 410 667 438 645 q 466 623 466 592 q 466 572 453 558 q 441 544 423 544 q 405 544 392 557 q 379 570 379 587 q 379 604 393 618 q 407 632 407 634 q 407 644 378 644 q 312 644 284 573 q 256 501 243 384 l 314 384 l 309 359 l 240 359 l 205 147 q 187 43 169 -21 q 151 -86 126 -136 q 101 -186 75 -212 q 49 -237 19 -250 q -12 -262 -37 -262 q -73 -262 -98 -242 q -123 -223 -123 -195 q -123 -176 -112 -163 q -101 -149 -78 -149 q -37 -149 -37 -195 q -37 -207 -42 -215 q -48 -224 -48 -230 q -48 -239 -34 -239 q 5 -239 37 -200 q 68 -161 95 41 z"},"Q":{"x_min":0,"x_max":646,"ha":646,"o":"m 511 -178 l 511 -200 q 455 -209 411 -209 q 314 -209 261 -170 q 208 -130 208 -55 q 208 -41 216 -1 q 142 31 101 96 q 61 162 61 239 q 61 393 177 531 q 293 670 412 670 q 501 670 565 595 q 630 521 630 404 q 630 275 555 155 q 480 34 349 -7 q 334 -59 334 -88 q 334 -183 443 -183 q 471 -183 511 -178 z m 520 529 q 520 646 409 646 q 345 646 301 596 q 256 545 215 384 q 174 223 174 124 q 174 9 286 9 q 352 9 393 54 q 435 99 477 277 q 520 455 520 529 z"},"w":{"x_min":0,"x_max":646,"ha":646,"o":"m 377 388 l 468 388 q 448 296 428 215 q 408 134 408 87 q 408 23 446 23 q 496 23 545 125 q 595 226 595 293 q 595 305 574 306 q 531 308 531 350 q 531 368 543 382 q 555 396 573 396 q 620 396 620 327 q 620 219 558 104 q 497 -12 428 -12 q 388 -12 357 23 q 326 58 326 126 q 326 159 335 209 l 333 211 q 284 91 240 39 q 195 -12 145 -12 q 69 -12 69 59 q 69 85 83 141 l 121 293 q 131 334 131 347 q 131 363 117 363 q 78 363 36 261 l 14 261 q 62 396 153 396 q 218 396 218 329 q 218 304 211 283 l 168 110 q 167 107 162 84 q 156 61 156 50 q 156 21 177 21 q 211 21 267 117 q 323 212 377 388 z"},"-":{"x_min":0,"x_max":323,"ha":323,"o":"m 44 252 l 253 252 l 253 163 l 44 163 z"},"E":{"x_min":0,"x_max":698,"ha":698,"o":"m 370 630 l 311 355 l 362 355 q 422 355 451 376 q 481 396 504 470 l 529 470 l 470 198 l 445 198 q 450 225 450 252 q 450 276 437 298 q 424 319 408 325 q 392 330 358 330 l 306 330 l 241 25 l 413 25 q 474 25 503 33 q 532 41 568 86 q 604 132 641 206 l 666 206 l 605 0 l 32 0 l 37 25 l 127 25 l 255 630 l 154 630 l 159 655 l 711 655 l 681 489 l 659 489 q 660 557 645 587 q 630 617 603 623 q 575 630 516 630 z"},"s":{"x_min":0,"x_max":375,"ha":375,"o":"m 152 321 q 152 305 164 289 q 177 273 228 246 q 279 219 302 190 q 326 161 326 124 q 326 64 276 26 q 226 -12 157 -12 q 103 -12 67 13 q 31 38 31 71 q 31 90 43 104 q 56 117 74 117 q 92 117 102 105 q 112 93 112 78 q 112 67 106 54 q 100 41 100 37 q 100 10 160 10 q 206 10 234 30 q 261 50 261 76 q 261 118 184 155 q 87 202 87 275 q 87 319 127 358 q 168 396 234 396 q 284 396 313 377 q 343 359 343 327 q 343 309 330 297 q 318 285 302 285 q 286 285 275 296 q 265 307 265 323 q 265 330 269 341 q 272 352 272 359 q 272 374 232 374 q 195 374 173 359 q 152 344 152 321 z"},">":{"x_min":0,"x_max":667,"ha":667,"o":"m 70 568 l 597 345 l 597 298 l 70 76 l 70 133 l 527 321 l 70 510 z"},"l":{"x_min":0,"x_max":271,"ha":271,"o":"m 271 662 l 139 94 q 132 63 132 50 q 132 33 144 33 q 186 33 228 145 l 250 145 q 196 -12 104 -12 q 79 -12 59 5 q 40 21 40 52 q 40 63 47 94 l 170 630 l 103 630 l 108 655 l 174 655 q 205 655 271 662 z"},"8":{"x_min":0,"x_max":490,"ha":490,"o":"m 309 322 l 309 320 q 425 275 425 181 q 425 99 357 42 q 290 -15 197 -15 q 116 -15 67 31 q 18 78 18 142 q 18 199 64 250 q 110 302 203 325 l 203 327 q 104 372 104 462 q 104 538 167 589 q 229 640 311 640 q 384 640 429 597 q 473 555 473 494 q 473 370 309 322 z m 310 618 q 254 618 225 552 q 196 486 196 402 q 196 372 213 352 q 230 333 263 333 q 317 333 349 399 q 381 466 381 533 q 381 570 363 594 q 345 618 310 618 z m 250 311 q 184 311 149 247 q 114 182 114 88 q 114 48 137 27 q 161 7 198 7 q 268 7 300 79 q 331 152 331 225 q 331 311 250 311 z"},"\\":{"x_min":0,"x_max":281,"ha":281,"o":"m 0 670 l 53 670 l 281 -15 l 228 -15 z"},"e":{"x_min":0,"x_max":375,"ha":375,"o":"m 145 169 q 125 79 125 62 q 125 42 140 26 q 155 10 183 10 q 272 10 334 129 l 355 129 q 322 57 275 22 q 229 -12 179 -12 q 119 -12 79 38 q 39 88 39 154 q 39 241 109 319 q 178 396 256 396 q 306 396 333 365 q 361 334 361 297 q 361 259 324 215 q 287 170 145 169 z m 150 191 q 218 192 241 210 q 264 227 278 266 q 292 304 292 328 q 292 374 251 374 q 212 374 192 339 q 171 304 150 191 z"},"b":{"x_min":0,"x_max":427,"ha":427,"o":"m 255 662 l 180 341 l 182 339 q 222 398 280 398 q 330 398 365 357 q 401 316 401 249 q 401 152 327 70 q 253 -12 166 -12 q 113 -12 77 19 q 40 50 40 101 q 40 145 49 176 q 50 179 54 194 l 157 630 l 98 630 l 103 655 l 160 655 q 213 655 255 662 z m 150 218 l 138 167 q 124 105 124 71 q 124 41 140 25 q 155 10 179 10 q 212 10 235 38 q 258 66 285 184 q 313 302 313 329 q 313 373 270 373 q 238 373 205 341 q 171 309 150 218 z"},"%":{"x_min":0,"x_max":927,"ha":927,"o":"m 312 672 q 353 672 381 636 q 408 601 408 536 q 408 452 354 391 q 301 330 243 330 q 202 330 175 368 q 148 406 148 464 q 148 543 199 608 q 250 672 312 672 z m 247 350 q 271 350 285 376 q 300 401 322 484 q 344 567 344 610 q 344 630 334 641 q 324 652 311 652 q 292 652 275 634 q 259 615 236 518 q 212 421 212 388 q 212 350 247 350 z m 741 671 l 785 671 l 173 -33 l 130 -33 z m 669 309 q 710 309 738 273 q 765 238 765 173 q 765 88 711 28 q 658 -33 600 -33 q 559 -33 532 5 q 505 43 505 101 q 505 180 556 245 q 606 309 669 309 z m 604 -13 q 627 -13 642 13 q 657 39 679 121 q 701 204 701 247 q 701 267 691 278 q 681 289 668 289 q 649 289 633 271 q 616 252 593 155 q 569 58 569 25 q 569 -13 604 -13 z"},"m":{"x_min":0,"x_max":760,"ha":760,"o":"m 227 392 l 201 285 l 203 283 q 278 396 363 396 q 400 396 421 376 q 442 355 442 331 q 442 326 437 289 l 439 287 q 513 396 606 396 q 636 396 658 377 q 679 359 679 330 q 679 311 671 278 l 626 95 q 618 60 618 52 q 618 31 633 31 q 647 31 672 56 q 696 82 716 140 l 739 140 q 717 67 677 30 q 638 -8 599 -8 q 566 -8 546 9 q 526 25 526 57 q 526 69 534 101 l 581 287 q 583 291 586 309 q 590 327 590 334 q 590 344 582 351 q 574 359 564 359 q 536 359 484 310 q 432 262 405 150 l 369 0 l 276 0 l 339 265 q 351 314 351 329 q 351 340 344 350 q 336 360 324 360 q 295 360 245 306 q 195 252 170 147 l 135 0 l 41 0 l 128 359 l 45 359 l 50 384 l 128 384 q 180 384 227 392 z"},"#":{"x_min":0,"x_max":668,"ha":668,"o":"m 45 469 l 206 469 l 249 669 l 299 669 l 257 469 l 471 469 l 513 669 l 564 669 l 522 469 l 622 469 l 622 418 l 512 418 l 472 228 l 622 228 l 622 177 l 462 177 l 420 -23 l 369 -23 l 411 177 l 196 177 l 155 -23 l 103 -23 l 145 177 l 45 177 l 45 228 l 156 228 l 196 418 l 45 418 z m 461 418 l 246 418 l 206 229 l 422 229 z"},",":{"x_min":0,"x_max":271,"ha":271,"o":"m 40 -145 l 35 -121 q 102 -99 135 -58 q 168 -17 168 22 q 168 39 159 39 q 152 39 142 24 q 126 0 98 0 q 78 0 63 14 q 49 29 49 50 q 49 75 70 93 q 91 112 119 112 q 154 112 174 85 q 195 59 195 26 q 195 -24 158 -70 q 121 -117 40 -145 z"},"n":{"x_min":0,"x_max":542,"ha":542,"o":"m 236 392 l 211 286 l 213 284 q 295 396 383 396 q 415 396 436 377 q 457 357 457 325 q 457 312 449 279 l 405 98 q 398 70 398 56 q 398 32 414 32 q 458 32 502 139 l 525 139 q 497 62 456 27 q 415 -8 373 -8 q 306 -8 306 55 q 306 77 317 120 l 358 284 q 358 287 362 299 q 365 312 365 326 q 365 359 339 359 q 310 359 257 310 q 204 260 172 123 l 143 0 l 51 0 l 135 359 l 51 359 l 56 384 l 122 384 q 190 384 236 392 z"},"h":{"x_min":0,"x_max":490,"ha":490,"o":"m 270 662 l 181 296 l 183 294 q 257 396 344 396 q 416 396 416 324 q 416 307 406 267 l 367 110 q 358 68 358 57 q 358 31 374 31 q 411 31 449 137 l 473 137 q 430 -8 334 -8 q 267 -8 267 60 q 267 84 276 120 l 317 283 q 325 315 325 329 q 325 362 300 362 q 280 362 242 330 q 204 299 186 265 q 168 231 155 175 l 113 0 l 22 0 l 170 630 l 103 630 l 108 655 l 171 655 q 220 655 270 662 z"},"z":{"x_min":0,"x_max":375,"ha":375,"o":"m 40 245 l 119 396 q 226 348 293 348 q 327 348 329 370 q 329 396 347 396 q 361 396 361 384 q 361 358 266 260 l 167 162 q 151 143 125 119 l 102 98 l 104 96 q 126 102 142 102 q 193 102 263 70 q 279 64 286 64 q 300 64 309 74 q 318 84 318 94 q 318 102 304 104 q 273 106 273 133 q 273 148 284 158 q 294 167 307 167 q 342 167 342 117 q 342 69 301 29 q 260 -12 223 -12 q 198 -12 139 13 q 81 38 67 38 q 49 38 49 27 l 52 10 q 52 -12 32 -12 q 14 -12 14 7 q 14 38 143 168 q 272 298 278 298 l 276 300 q 209 290 160 290 q 133 290 92 300 l 65 245 z"},"B":{"x_min":0,"x_max":698,"ha":698,"o":"m 123 25 l 250 630 l 149 630 l 154 655 l 431 655 q 514 655 560 642 q 606 630 639 592 q 671 553 671 508 q 671 450 623 405 q 574 360 469 345 l 469 343 q 551 324 591 279 q 631 233 631 176 q 631 122 594 77 q 557 31 496 16 q 435 0 336 0 l 27 0 l 33 25 z m 364 630 l 306 358 l 395 358 q 458 358 491 375 q 523 393 540 448 q 556 503 556 554 q 556 605 526 618 q 497 630 426 630 z m 301 333 l 236 25 l 347 25 q 420 25 449 43 q 478 62 496 124 q 513 186 513 247 q 513 287 487 310 q 461 333 385 333 z"},"K":{"x_min":0,"x_max":813,"ha":813,"o":"m 390 630 l 260 25 l 350 25 l 345 0 l 51 0 l 56 25 l 146 25 l 277 630 l 187 630 l 192 655 l 486 655 l 481 630 z m 442 388 l 689 25 l 774 25 l 769 0 l 476 0 l 481 25 l 562 25 l 346 343 l 702 628 l 702 630 l 604 630 l 609 655 l 835 655 l 829 630 l 743 630 z"},"R":{"x_min":0,"x_max":698,"ha":698,"o":"m 294 343 l 228 25 l 324 25 l 319 0 l 19 0 l 25 25 l 115 25 l 242 630 l 141 630 l 146 655 l 450 655 q 553 655 609 612 q 665 570 665 510 q 665 446 604 402 q 543 357 414 348 l 414 346 q 501 321 541 279 q 581 237 581 138 q 581 69 590 45 q 599 22 638 22 q 656 22 690 33 l 690 7 q 640 -8 608 -8 q 536 -8 494 31 q 453 69 453 168 q 453 270 429 306 q 404 343 319 343 z m 443 630 l 356 630 l 299 368 l 368 368 q 450 368 481 386 q 511 405 531 450 q 550 496 550 546 q 550 583 531 606 q 513 630 443 630 z"},"T":{"x_min":0,"x_max":698,"ha":698,"o":"m 500 630 l 373 25 l 471 25 l 467 0 l 157 0 l 163 25 l 260 25 l 387 630 l 352 630 q 280 630 230 587 q 180 544 140 437 l 117 437 l 163 655 l 740 655 l 693 437 l 669 437 q 672 459 672 475 q 672 529 660 569 q 648 608 623 619 q 598 630 542 630 z"},"P":{"x_min":0,"x_max":698,"ha":698,"o":"m 265 630 l 165 630 l 170 655 l 457 655 q 560 655 603 641 q 645 628 675 588 q 705 548 705 498 q 705 418 632 360 q 559 302 410 302 l 312 302 l 256 25 l 357 25 l 352 0 l 39 0 l 44 25 l 143 25 z m 464 630 l 379 630 l 317 327 l 408 327 q 472 327 507 344 q 542 360 563 422 q 584 484 584 545 q 584 583 563 607 q 542 630 464 630 z"},"|":{"x_min":0,"x_max":527,"ha":527,"o":"m 237 670 l 291 670 l 291 -256 l 237 -256 z"},"t":{"x_min":0,"x_max":271,"ha":271,"o":"m 225 492 l 202 384 l 265 384 l 260 359 l 196 359 l 131 84 q 123 53 123 40 q 123 21 139 21 q 178 21 225 138 l 245 138 q 222 64 185 26 q 147 -12 105 -12 q 36 -12 36 58 q 36 78 48 129 l 102 359 l 38 359 l 43 384 l 109 384 l 131 478 q 181 479 225 492 z"},"M":{"x_min":0,"x_max":969,"ha":969,"o":"m 420 655 l 492 165 l 494 165 l 777 655 l 1009 655 l 1004 630 l 913 630 l 783 25 l 873 25 l 868 0 l 573 0 l 578 25 l 669 25 l 798 630 l 789 630 l 429 0 l 406 0 l 313 630 l 304 630 l 175 25 l 270 25 l 265 0 l 55 0 l 61 25 l 151 25 l 280 630 l 190 630 l 195 655 z"},"g":{"x_min":0,"x_max":427,"ha":427,"o":"m 89 -22 q 22 8 22 63 q 22 133 102 163 q 67 201 67 248 q 67 308 117 352 q 168 396 230 396 q 305 396 341 330 l 343 330 q 343 365 356 382 q 370 399 388 399 q 401 399 412 389 q 422 380 422 364 q 422 332 397 332 q 387 332 381 342 q 375 351 374 352 q 374 357 369 357 q 358 357 358 326 l 360 283 q 360 215 309 170 q 257 126 191 126 q 151 126 114 149 q 58 128 58 96 q 58 78 76 69 q 93 59 152 59 q 255 59 286 51 q 317 42 337 9 q 357 -24 357 -69 q 357 -151 298 -201 q 238 -251 136 -251 q 54 -251 9 -221 q -36 -191 -36 -145 q -36 -66 89 -22 z m 282 324 q 282 345 271 359 q 259 374 237 374 q 184 374 164 302 q 144 229 144 200 q 144 148 191 148 q 240 148 261 216 q 282 284 282 324 z m 330 -97 q 330 -75 316 -57 q 302 -39 281 -34 q 261 -29 205 -29 q 81 -29 51 -66 q 21 -104 21 -141 q 21 -184 54 -207 q 87 -229 143 -229 q 233 -229 281 -187 q 330 -144 330 -97 z"},"j":{"x_min":0,"x_max":323,"ha":323,"o":"m 201 597 q 201 619 217 635 q 233 651 255 651 q 277 651 293 635 q 309 620 309 597 q 309 575 293 559 q 277 543 255 543 q 233 543 217 559 q 201 575 201 597 z m 264 392 l 181 41 q 111 -251 -29 -251 q -62 -251 -84 -236 q -107 -221 -107 -199 q -107 -181 -94 -170 q -81 -158 -61 -158 q -42 -158 -29 -171 q -17 -184 -17 -200 l -19 -219 q -19 -231 -6 -231 q 12 -231 22 -210 q 32 -190 52 -107 l 163 359 l 66 359 l 72 384 l 158 384 q 192 384 219 387 z"},"i":{"x_min":0,"x_max":323,"ha":323,"o":"m 184 597 q 184 619 200 635 q 216 651 238 651 q 260 651 276 635 q 292 620 292 597 q 292 575 276 559 q 260 543 238 543 q 216 543 200 559 q 184 575 184 597 z m 242 393 l 169 92 q 161 55 161 44 q 161 26 179 26 q 202 26 231 58 q 261 91 289 155 l 311 155 q 247 -12 136 -12 q 72 -12 72 55 q 72 76 78 99 q 83 122 87 136 l 141 359 l 49 359 l 54 384 l 111 384 q 181 384 242 393 z"},"y":{"x_min":0,"x_max":438,"ha":438,"o":"m 202 -23 l 120 274 q 108 317 103 329 q 97 341 86 341 q 59 341 23 238 l 2 238 q 26 317 61 356 q 95 396 131 396 q 155 396 173 379 q 190 362 207 302 l 263 97 l 265 97 q 275 129 319 241 q 363 353 379 374 q 396 396 420 396 q 458 396 458 359 q 458 340 448 329 q 438 318 426 318 q 418 318 409 324 q 400 330 396 330 q 377 330 352 267 l 267 56 q 226 -45 148 -152 q 71 -258 -29 -258 q -59 -258 -74 -244 q -89 -230 -89 -213 q -89 -199 -79 -189 q -69 -179 -53 -179 q -20 -179 -7 -211 q 2 -231 12 -231 q 35 -231 88 -188 q 141 -146 202 -23 z"},"@":{"x_min":0,"x_max":920,"ha":920,"o":"m 688 468 l 599 161 q 585 112 585 87 q 585 74 594 62 q 604 50 621 50 q 694 50 762 146 q 829 241 829 369 q 829 499 741 584 q 652 669 513 669 q 332 669 213 530 q 94 391 94 204 q 94 31 202 -77 q 309 -186 476 -186 q 604 -186 707 -118 q 810 -50 868 84 l 896 84 q 849 -59 731 -137 q 613 -216 473 -216 q 291 -216 169 -93 q 47 30 47 217 q 47 419 183 557 q 318 695 509 695 q 670 695 764 599 q 858 503 858 360 q 858 228 782 122 q 707 15 588 15 q 514 15 514 82 q 514 115 523 152 l 521 154 q 413 15 330 15 q 291 15 266 50 q 242 84 242 128 q 242 241 335 356 q 428 471 511 471 q 580 471 594 403 l 596 403 l 611 457 z m 577 378 q 577 407 560 428 q 543 448 517 448 q 453 448 386 333 q 319 217 319 143 q 319 116 335 95 q 351 74 375 74 q 422 74 478 134 q 533 194 555 265 q 577 336 577 378 z"},".":{"x_min":0,"x_max":323,"ha":323,"o":"m 83 46 q 83 70 100 86 q 117 103 141 103 q 165 103 181 86 q 198 70 198 46 q 198 22 181 5 q 165 -12 141 -12 q 117 -12 100 5 q 83 22 83 46 z"},"p":{"x_min":0,"x_max":503,"ha":503,"o":"m 230 336 q 272 398 328 398 q 387 398 419 356 q 451 314 451 242 q 451 142 378 65 q 306 -12 234 -12 q 182 -12 162 51 l 160 51 l 98 -226 l 182 -226 l 177 -251 l -76 -251 l -71 -226 l 5 -226 l 140 359 l 52 359 l 58 384 l 116 384 q 200 384 241 392 l 228 338 z m 234 13 q 266 13 288 42 q 309 72 336 179 q 363 287 363 322 q 363 374 321 374 q 291 374 268 351 q 244 327 231 309 q 219 290 197 211 q 176 132 176 103 q 176 13 234 13 z"},"X":{"x_min":0,"x_max":813,"ha":813,"o":"m 475 402 l 694 630 l 601 630 l 606 655 l 818 655 l 813 630 l 728 630 l 486 377 l 646 25 l 741 25 l 736 0 l 429 0 l 435 25 l 524 25 l 404 290 l 154 25 l 247 25 l 241 0 l 27 0 l 32 25 l 120 25 l 393 313 l 247 630 l 150 630 l 154 655 l 469 655 l 464 630 l 370 630 z"},"*":{"x_min":0,"x_max":490,"ha":490,"o":"m 250 624 q 250 643 261 656 q 273 670 290 670 q 308 670 319 656 q 329 643 329 627 q 329 607 312 572 q 296 537 296 526 q 296 515 304 515 q 317 515 346 558 q 375 601 409 601 q 427 601 438 589 q 448 577 448 564 q 448 546 431 533 q 414 519 397 518 q 313 514 313 497 q 313 485 359 480 q 411 476 428 462 q 446 448 446 428 q 446 414 435 403 q 425 392 411 392 q 389 392 376 404 q 363 416 341 447 q 318 478 305 478 q 297 478 297 468 q 297 454 312 421 q 328 388 328 367 q 328 351 317 337 q 307 323 289 323 q 271 323 261 336 q 251 350 251 365 q 251 382 267 419 q 282 457 282 467 q 282 476 275 476 q 261 476 232 434 q 203 392 171 392 q 153 392 143 403 q 133 415 133 428 q 133 474 210 479 q 266 482 266 497 q 266 512 210 516 q 131 520 131 568 q 131 582 142 593 q 152 605 170 605 q 203 605 232 561 q 261 517 275 517 q 281 517 281 524 q 281 538 265 573 q 250 607 250 624 z"},"Y":{"x_min":0,"x_max":813,"ha":813,"o":"m 480 334 l 732 630 l 636 630 l 642 655 l 850 655 l 844 630 l 765 630 l 493 308 l 433 25 l 527 25 l 522 0 l 218 0 l 224 25 l 318 25 l 375 293 l 207 630 l 124 630 l 129 655 l 433 655 l 428 630 l 331 630 z"},"c":{"x_min":0,"x_max":375,"ha":375,"o":"m 319 119 l 341 119 q 276 -12 179 -12 q 115 -12 78 39 q 40 90 40 155 q 40 243 108 319 q 177 396 276 396 q 314 396 340 375 q 365 354 365 327 q 365 303 351 289 q 336 275 318 275 q 300 275 287 287 q 273 299 273 320 q 273 339 288 356 q 293 361 293 367 q 293 374 263 374 q 231 374 206 347 q 181 320 156 214 q 131 107 131 79 q 131 49 147 29 q 163 10 187 10 q 255 10 319 119 z"},"!":{"x_min":0,"x_max":323,"ha":323,"o":"m 161 184 l 137 184 q 168 315 171 488 q 172 596 191 632 q 210 667 244 667 q 267 667 281 650 q 296 633 296 612 q 296 566 257 478 q 218 390 203 346 q 188 303 168 214 z m 64 46 q 64 70 81 87 q 99 104 122 104 q 146 104 163 87 q 180 70 180 46 q 180 22 163 5 q 146 -12 122 -12 q 99 -12 81 5 q 64 22 64 46 z"},"/":{"x_min":0,"x_max":281,"ha":281,"o":"m 281 670 l 53 -15 l 0 -15 l 228 670 z"},"[":{"x_min":0,"x_max":490,"ha":490,"o":"m 286 635 l 470 635 l 470 616 l 449 616 q 398 616 376 607 q 354 598 343 560 l 156 -132 q 148 -161 148 -170 q 148 -185 161 -193 q 175 -201 221 -201 l 248 -201 l 243 -220 l 55 -220 z"},"6":{"x_min":0,"x_max":490,"ha":490,"o":"m 467 655 l 467 632 q 273 625 182 370 l 184 368 q 236 417 303 417 q 363 417 405 369 q 447 320 447 255 q 447 155 376 70 q 306 -15 208 -15 q 130 -15 86 41 q 42 96 42 181 q 42 289 102 403 q 162 517 260 586 q 358 655 467 655 z m 291 392 q 252 392 214 365 q 175 337 168 322 q 161 306 142 220 q 122 134 122 87 q 122 48 147 27 q 173 7 206 7 q 239 7 266 30 q 293 52 324 136 q 355 220 355 307 q 355 343 338 368 q 321 392 291 392 z"},"r":{"x_min":0,"x_max":354,"ha":354,"o":"m 221 390 l 193 269 l 195 267 q 262 396 315 396 q 335 396 349 383 q 363 370 363 350 q 363 331 349 318 q 336 305 315 305 q 295 305 283 317 q 271 329 267 329 q 256 329 233 295 q 209 262 197 229 q 184 197 168 129 l 137 -5 l 45 -5 l 125 359 l 50 359 l 56 384 l 117 384 q 180 384 221 390 z"},"2":{"x_min":0,"x_max":490,"ha":490,"o":"m 404 165 l 365 0 l 15 0 l 15 30 q 80 114 218 231 q 366 356 366 520 q 366 562 344 589 q 322 615 283 615 q 227 615 188 580 q 148 545 148 515 q 148 511 152 505 q 156 499 162 499 l 184 501 q 227 501 227 461 q 227 440 212 427 q 198 413 178 413 q 151 413 134 435 q 116 457 116 486 q 116 542 166 591 q 216 640 300 640 q 376 640 420 600 q 464 559 464 503 q 464 442 422 391 q 379 340 250 227 q 120 114 88 79 l 296 79 q 337 79 349 88 q 360 97 370 130 q 379 163 380 165 z"},"{":{"x_min":0,"x_max":480,"ha":480,"o":"m 392 -231 l 392 -248 q 306 -235 258 -179 q 209 -123 209 -60 q 209 -22 220 20 q 231 62 231 96 q 231 126 204 158 q 177 189 120 198 l 120 217 q 177 226 204 257 q 231 289 231 319 q 231 353 220 395 q 209 437 209 475 q 209 538 258 594 q 306 650 392 663 l 392 645 q 335 633 309 602 q 282 570 282 534 q 282 493 294 453 q 304 411 304 376 q 304 328 270 282 q 235 237 160 210 l 160 208 q 230 182 267 135 q 304 88 304 39 q 304 4 294 -38 q 282 -78 282 -119 q 282 -156 309 -186 q 335 -216 392 -231 z"},"9":{"x_min":0,"x_max":490,"ha":490,"o":"m 20 -15 l 26 9 q 228 24 308 256 l 306 258 q 253 206 190 206 q 130 206 87 252 q 44 298 44 371 q 44 475 121 558 q 197 640 284 640 q 356 640 402 583 q 448 527 448 439 q 448 272 329 128 q 209 -16 20 -15 z m 200 232 q 222 232 243 240 q 264 249 288 267 q 311 285 321 301 q 330 317 349 397 q 368 478 368 528 q 368 568 347 592 q 326 615 285 615 q 244 615 218 587 q 191 560 164 481 q 136 402 136 319 q 136 275 156 253 q 176 232 200 232 z"}," ":{"x_min":0,"x_max":245,"ha":245,"o":""},"I":{"x_min":0,"x_max":490,"ha":490,"o":"m 406 630 l 275 25 l 365 25 l 360 0 l 64 0 l 70 25 l 160 25 l 291 630 l 201 630 l 207 655 l 502 655 l 497 630 z"},"H":{"x_min":0,"x_max":813,"ha":813,"o":"m 576 328 l 299 328 l 236 25 l 326 25 l 321 0 l 25 0 l 31 25 l 121 25 l 250 630 l 160 630 l 166 655 l 460 655 l 455 630 l 364 630 l 305 353 l 581 353 l 641 630 l 551 630 l 556 655 l 849 655 l 844 630 l 753 630 l 625 25 l 715 25 l 710 0 l 416 0 l 421 25 l 511 25 z"},"4":{"x_min":0,"x_max":490,"ha":490,"o":"m 434 642 l 337 191 l 423 191 l 436 249 l 461 249 l 426 93 l 402 93 l 418 166 l 331 166 l 300 25 l 371 25 l 366 0 l 132 0 l 136 25 l 209 25 l 240 166 l 13 166 l 13 186 q 168 408 388 642 z m 245 191 l 318 526 l 316 528 q 185 382 64 217 l 45 191 z"},"~":{"x_min":0,"x_max":667,"ha":667,"o":"m 572 392 l 595 392 q 593 326 558 289 q 523 252 474 252 q 447 252 419 261 q 391 270 303 306 q 214 342 185 342 q 112 342 95 253 l 72 253 q 77 327 111 360 q 145 393 189 393 q 236 393 375 334 q 448 302 482 302 q 517 302 542 324 q 567 347 572 392 z"},"D":{"x_min":0,"x_max":760,"ha":760,"o":"m 122 25 l 249 630 l 148 630 l 154 655 l 419 655 q 485 655 533 646 q 580 636 626 598 q 673 560 697 504 q 721 448 721 387 q 721 243 617 121 q 513 0 332 0 l 27 0 l 32 25 z m 363 630 l 236 25 l 319 25 q 376 25 415 32 q 453 40 484 67 q 516 94 546 173 q 577 252 591 335 q 605 418 605 483 q 605 543 579 578 q 553 613 522 622 q 491 630 426 630 z"},"^":{"x_min":0,"x_max":422,"ha":422,"o":"m 222 670 l 428 320 l 369 320 l 212 587 l 56 320 l -5 320 l 202 670 z"},"0":{"x_min":0,"x_max":490,"ha":490,"o":"m 185 -15 q 124 -15 80 44 q 36 104 36 217 q 36 377 126 509 q 216 640 307 640 q 376 640 416 573 q 456 507 456 413 q 456 247 366 116 q 277 -15 185 -15 z m 306 618 q 262 618 230 571 q 197 523 155 347 q 112 171 112 102 q 112 57 131 32 q 150 7 183 7 q 236 7 270 61 q 305 116 342 296 q 380 477 380 532 q 380 569 361 594 q 341 618 306 618 z"},"F":{"x_min":0,"x_max":698,"ha":698,"o":"m 369 630 l 308 353 l 373 353 q 405 353 428 359 q 450 364 472 389 q 493 414 506 466 l 531 466 l 469 176 l 444 176 q 454 214 454 241 q 454 280 436 304 q 418 328 369 328 l 303 328 l 238 25 l 343 25 l 337 0 l 29 0 l 35 25 l 125 25 l 254 630 l 164 630 l 170 655 l 715 655 l 676 453 l 653 453 q 656 535 640 573 q 625 612 599 621 q 573 630 526 630 z"},"`":{"x_min":0,"x_max":333,"ha":333,"o":"m 315 459 l 299 451 l 199 549 q 141 607 141 631 q 141 647 155 659 q 168 671 181 671 q 210 671 253 585 z"},"k":{"x_min":0,"x_max":490,"ha":490,"o":"m 27 0 l 176 630 l 102 630 l 107 655 l 173 655 q 210 655 277 662 l 173 230 l 175 228 q 190 250 239 247 q 263 264 300 332 q 338 399 391 399 q 420 399 440 380 q 461 361 461 335 q 461 317 449 302 q 437 288 414 288 q 393 288 383 301 q 372 314 372 329 q 372 343 382 353 q 391 363 391 367 q 391 374 379 374 q 352 374 330 339 q 309 305 305 294 q 289 267 265 242 q 317 227 335 202 q 353 177 353 135 l 350 58 q 349 30 365 30 q 404 30 450 137 l 471 137 q 444 62 403 27 q 362 -8 319 -8 q 252 -8 252 62 q 252 76 259 101 q 265 125 269 144 q 272 163 274 165 q 274 167 276 177 q 278 188 278 195 q 278 221 248 228 q 217 204 197 204 q 177 204 174 221 l 172 221 l 119 0 z"},"u":{"x_min":0,"x_max":542,"ha":542,"o":"m 475 384 l 411 107 q 410 104 405 84 q 401 63 401 50 q 401 42 406 35 q 410 28 417 28 q 435 28 459 58 q 483 89 504 139 l 526 139 q 498 62 458 25 q 419 -12 379 -12 q 348 -12 332 11 q 316 35 316 65 q 316 74 320 97 l 318 99 q 242 -12 160 -12 q 125 -12 99 11 q 73 34 73 73 q 73 87 77 105 q 82 123 85 139 l 136 362 l 59 362 l 65 384 l 147 384 q 184 384 207 387 q 230 390 237 390 l 171 107 q 161 70 161 51 q 161 21 189 21 q 217 21 268 66 q 318 112 343 218 l 382 384 z"},"]":{"x_min":0,"x_max":490,"ha":490,"o":"m 175 -220 l -9 -220 l -9 -201 l 12 -201 q 62 -201 85 -192 q 108 -183 118 -145 l 305 547 q 313 576 313 585 q 313 600 300 608 q 287 616 240 616 l 213 616 l 218 635 l 406 635 z"},"U":{"x_min":0,"x_max":813,"ha":813,"o":"m 379 630 l 296 241 q 294 241 288 203 q 281 165 281 136 q 281 12 427 12 q 511 12 566 62 q 622 111 648 248 l 722 630 l 630 630 l 635 655 l 839 655 l 834 630 l 748 630 l 669 226 q 645 98 583 42 q 521 -15 412 -15 q 295 -15 233 35 q 171 86 171 153 q 171 187 186 257 l 266 630 l 172 630 l 177 655 l 472 655 l 467 630 z"},"o":{"x_min":0,"x_max":427,"ha":427,"o":"m 37 156 q 37 252 105 324 q 174 396 258 396 q 325 396 362 348 q 399 299 399 232 q 399 138 329 63 q 260 -12 179 -12 q 115 -12 76 35 q 37 83 37 156 z m 309 313 q 309 340 295 357 q 280 374 254 374 q 214 374 197 342 q 180 310 153 211 q 127 113 127 68 q 127 40 143 25 q 159 10 180 10 q 241 10 275 143 q 309 276 309 313 z"},"N":{"x_min":0,"x_max":813,"ha":813,"o":"m 414 655 l 632 173 l 634 173 l 731 630 l 641 630 l 647 655 l 842 655 l 837 630 l 756 630 l 620 -8 l 596 -8 l 306 630 l 298 630 l 169 25 l 272 25 l 267 0 l 40 0 l 46 25 l 143 25 l 272 630 l 177 630 l 182 655 z"},"+":{"x_min":0,"x_max":667,"ha":667,"o":"m 69 348 l 307 348 l 307 585 l 359 585 l 359 348 l 597 348 l 597 296 l 359 296 l 359 59 l 307 59 l 307 296 l 69 296 z"},"G":{"x_min":0,"x_max":646,"ha":646,"o":"m 628 661 l 597 463 l 574 463 q 566 562 529 604 q 491 645 419 645 q 338 645 293 566 q 248 488 221 338 q 195 189 195 139 q 195 80 226 45 q 257 10 313 10 q 376 10 408 54 q 440 98 457 214 l 363 214 l 368 239 l 656 239 l 651 214 l 588 214 q 550 74 478 30 q 407 -15 330 -15 q 206 -15 143 70 q 80 155 80 259 q 80 420 188 545 q 296 670 415 670 q 513 670 567 609 q 589 629 606 661 z"},"q":{"x_min":0,"x_max":427,"ha":427,"o":"m 424 389 l 280 -226 l 359 -226 l 354 -251 l 98 -251 l 103 -226 l 187 -226 l 254 59 l 252 61 q 208 -12 147 -12 q 95 -12 64 35 q 33 82 33 143 q 33 233 98 314 q 163 396 237 396 q 299 396 315 329 l 317 329 l 330 389 z m 301 295 q 301 325 286 350 q 271 375 241 375 q 214 375 192 344 q 170 312 145 197 q 120 82 120 57 q 120 40 130 26 q 140 12 159 12 q 187 12 222 51 q 258 89 279 172 q 301 254 301 295 z"},"d":{"x_min":0,"x_max":490,"ha":490,"o":"m 498 662 l 368 110 q 359 74 359 50 q 359 35 374 35 q 405 35 446 133 l 469 133 q 415 -12 338 -12 q 279 -12 274 75 l 272 75 q 225 -12 155 -12 q 107 -12 72 35 q 36 82 36 145 q 36 240 104 320 q 172 400 247 400 q 308 400 326 332 l 328 332 l 397 630 l 305 630 l 311 655 l 391 655 q 447 655 498 662 z m 312 293 q 312 327 296 353 q 280 378 249 378 q 222 378 202 355 q 183 332 154 210 q 124 88 124 59 q 124 41 135 27 q 146 13 162 13 q 226 13 269 114 q 312 215 312 293 z"},"1":{"x_min":0,"x_max":490,"ha":490,"o":"m 373 640 l 243 25 l 352 25 l 347 0 l 42 0 l 47 25 l 149 25 l 275 601 l 160 601 l 165 626 l 230 626 q 333 626 373 640 z"},"5":{"x_min":0,"x_max":490,"ha":490,"o":"m 183 544 l 134 353 q 184 375 242 375 q 318 375 369 332 q 420 289 420 212 q 420 123 352 54 q 285 -15 181 -15 q 118 -15 76 18 q 35 51 35 99 q 35 156 88 156 q 111 156 122 143 q 134 129 134 111 q 134 92 125 83 q 116 74 100 68 q 85 61 85 52 q 85 35 115 22 q 144 9 173 9 q 251 9 287 80 q 323 151 323 233 q 323 304 288 326 q 252 348 219 348 q 176 348 126 320 l 102 323 l 167 582 q 175 612 188 619 q 200 625 241 625 l 356 625 q 404 625 417 630 q 430 635 441 657 l 464 657 q 450 606 431 581 q 412 556 391 550 q 370 544 337 544 z"}}}
